<svg width="47" height="46" fill="none" xmlns="http://www.w3.org/2000/svg"><path d="M.531 0h46v46h-46V0Z" fill="#570D0D" fill-opacity=".8"/><mask id="a" style="mask-type:alpha" maskUnits="userSpaceOnUse" x="11" y="11" width="25" height="24"><path fill="#D9D9D9" d="M11.531 11h24v24h-24z"/></mask><g mask="url(#a)"><path d="m21.262 22.705 5.954 5.713c.157.15.233.328.23.532a.736.736 0 0 1-.242.532.776.776 0 0 1-.555.226.775.775 0 0 1-.555-.226l-6.064-5.806a1.35 1.35 0 0 1-.421-.971 1.35 1.35 0 0 1 .421-.971l6.064-5.818a.761.761 0 0 1 .56-.22.804.804 0 0 1 .562.231c.157.151.235.329.235.533a.714.714 0 0 1-.235.532l-5.954 5.713Z" fill="#fff"/></g></svg>