<svg width="11" height="99" fill="none" xmlns="http://www.w3.org/2000/svg"><path d="M3.354 92.697c-.848.082-1.34.807-1.34 1.873 0 1.121.547 1.805 1.285 1.805.834 0 1.176-.875 1.367-1.695l.246-.93c.342-1.477 1.121-2.898 2.844-2.898 1.736 0 2.926 1.367 2.926 3.746 0 2.31-1.108 3.76-3.063 3.841v-1.75c1.04-.082 1.545-.957 1.545-2.078 0-1.175-.574-1.982-1.422-1.982-.78 0-1.107.724-1.38 1.79l-.288 1.122C5.65 97.168 4.83 98.18 3.408 98.18c-1.75 0-2.912-1.559-2.912-3.637 0-2.106 1.19-3.527 2.858-3.555v1.71Zm.615-9.994c-1.19.205-1.873 1.162-1.873 2.365 0 1.627 1.244 2.762 3.486 2.762 2.27 0 3.486-1.148 3.486-2.762 0-1.175-.656-2.132-1.818-2.365v-1.79c1.9.273 3.418 1.831 3.418 4.183 0 2.611-1.9 4.525-5.086 4.525-3.2 0-5.086-1.941-5.086-4.525 0-2.188 1.272-3.883 3.473-4.184v1.791Zm6.562-3.322H.633v-3.719c0-2.27 1.271-3.486 3.158-3.486 1.347 0 2.345.615 2.816 1.777l3.924-2.133v1.983l-3.623 1.941v1.86h3.623v1.777Zm-5.113-1.778v-1.667c0-1.34-.574-1.942-1.627-1.942s-1.668.602-1.668 1.942v1.667h3.295Zm.164-15.79c3.2 0 5.086 1.94 5.086 4.539 0 2.597-1.9 4.539-5.086 4.539-3.2 0-5.086-1.942-5.086-4.54 0-2.597 1.887-4.538 5.086-4.538Zm0 1.79c-2.256 0-3.486 1.135-3.486 2.749 0 1.613 1.23 2.748 3.486 2.748 2.256 0 3.486-1.135 3.486-2.748 0-1.614-1.23-2.749-3.486-2.749Zm4.95-3.376h-9.9v-1.778h8.395v-4.375h1.504v6.153Zm0-7.575h-9.9v-1.777h8.395V46.5h1.504v6.152Zm0-14.26v3.364h-9.9v-3.418c0-2.953 1.86-4.744 4.936-4.744 3.09 0 4.963 1.79 4.963 4.799Zm-1.546 1.586v-1.49c0-2.064-1.134-3.117-3.418-3.117-2.27 0-3.39 1.053-3.39 3.063v1.544h6.808ZM5.582 23.19c3.2 0 5.086 1.942 5.086 4.54 0 2.597-1.9 4.539-5.086 4.539-3.2 0-5.086-1.942-5.086-4.54 0-2.597 1.887-4.539 5.086-4.539Zm0 1.791c-2.256 0-3.486 1.135-3.486 2.748 0 1.614 1.23 2.749 3.486 2.749 2.256 0 3.486-1.135 3.486-2.748 0-1.614-1.23-2.748-3.486-2.748Zm4.95-5.222-9.9 2.789v-1.914l7.288-1.791v-.096l-7.287-1.9v-1.75l7.3-1.914V13.1l-7.3-1.791V9.395l9.898 2.789v1.763L3.572 15.93v.068l6.96 1.996v1.764ZM.631.125h9.9v1.586L3.763 6.4v.081h6.767V8.26H.633V6.646L7.4 1.984V1.89H.633V.125Z" fill="#fff"/></svg>