<svg width="10" height="18" viewBox="0 0 10 18" fill="none" xmlns="http://www.w3.org/2000/svg">
<path d="M7.54379 8.89579L0.409619 1.95961C0.221464 1.77668 0.129754 1.56129 0.13449 1.31344C0.139384 1.06544 0.235907 0.849973 0.424062 0.667039C0.612375 0.484107 0.833993 0.392638 1.08892 0.392638C1.34384 0.392638 1.56546 0.484107 1.75377 0.667039L9.01888 7.71647C9.19014 7.88298 9.31705 8.06952 9.39961 8.27609C9.48216 8.48265 9.52344 8.68922 9.52344 8.89579C9.52344 9.10235 9.48216 9.30892 9.39961 9.51549C9.31705 9.72205 9.19014 9.90859 9.01888 10.0751L1.75377 17.1388C1.56546 17.3217 1.34139 17.4108 1.08158 17.4061C0.821758 17.4013 0.597772 17.3075 0.409617 17.1245C0.221462 16.9416 0.127386 16.7261 0.127386 16.4781C0.127386 16.2303 0.221462 16.0149 0.409618 15.832L7.54379 8.89579Z" fill="white" fill-opacity="0.8"/>
</svg>
