<svg width="19" height="11" viewBox="0 0 19 11" fill="none" xmlns="http://www.w3.org/2000/svg">
<path d="M9.47936 8.11967L16.8614 0.526935C17.0561 0.326687 17.2853 0.229083 17.5491 0.234122C17.813 0.23933 18.0423 0.342058 18.237 0.542307C18.4317 0.742724 18.5291 0.978587 18.5291 1.2499C18.5291 1.52121 18.4317 1.75707 18.237 1.95749L10.7345 9.68957C10.5573 9.87184 10.3587 10.0069 10.1389 10.0948C9.91905 10.1826 9.69921 10.2266 9.47936 10.2266C9.25952 10.2266 9.03968 10.1826 8.81983 10.0948C8.59999 10.0069 8.40146 9.87184 8.22424 9.68957L0.706509 1.95749C0.511818 1.75707 0.417004 1.5186 0.422068 1.24209C0.427131 0.965567 0.527008 0.727184 0.721699 0.526935C0.91639 0.326687 1.14571 0.226563 1.40965 0.226563C1.67343 0.226563 1.90267 0.326687 2.09736 0.526935L9.47936 8.11967Z" fill="white"/>
</svg>
