<svg width="31" height="31" viewBox="0 0 31 31" fill="none" xmlns="http://www.w3.org/2000/svg">
<path d="M15.6644 13.7256L10.1208 5.96875H7.16406L14.0312 15.5768L14.8956 16.7855L20.7735 25.0165H23.7302L16.5252 14.9343L15.6644 13.7256Z" fill="#7C7C7C"/>
<path d="M27.9516 0.460938H2.97031C1.58437 0.460938 0.460938 1.58437 0.460938 2.97031V27.9516C0.460938 29.3375 1.58437 30.4609 2.97031 30.4609H27.9516C29.3375 30.4609 30.4609 29.3375 30.4609 27.9516V2.97031C30.4609 1.58437 29.3375 0.460938 27.9516 0.460938ZM19.8728 26.37L13.9239 17.8977L6.47653 26.37H4.55185L13.0703 16.6818L4.55185 4.55185H11.0491L16.6811 12.5727L23.7376 4.55185H25.6622L17.5391 13.7913L26.37 26.37H19.8728Z" fill="#7C7C7C"/>
</svg>
