<svg width="30" height="30" viewBox="0 0 30 30" fill="none" xmlns="http://www.w3.org/2000/svg">
<path d="M15 20C17.7614 20 20 17.7614 20 15C20 12.2386 17.7614 10 15 10C12.2386 10 10 12.2386 10 15C10 17.7614 12.2386 20 15 20Z" fill="#7C7C7C"/>
<path d="M21.2488 0H8.74875C3.925 0 0 3.92625 0 8.75125V21.2512C0 26.075 3.92625 30 8.75125 30H21.2512C26.075 30 30 26.0738 30 21.2488V8.74875C30 3.925 26.0738 0 21.2488 0ZM15 22.5C10.8637 22.5 7.5 19.1363 7.5 15C7.5 10.8637 10.8637 7.5 15 7.5C19.1363 7.5 22.5 10.8637 22.5 15C22.5 19.1363 19.1363 22.5 15 22.5ZM23.75 7.5C23.06 7.5 22.5 6.94 22.5 6.25C22.5 5.56 23.06 5 23.75 5C24.44 5 25 5.56 25 6.25C25 6.94 24.44 7.5 23.75 7.5Z" fill="#7C7C7C"/>
</svg>
