<svg width="30" height="30" viewBox="0 0 30 30" fill="none" xmlns="http://www.w3.org/2000/svg">
<g clip-path="url(#clip0_680_4489)">
<path d="M26.6667 0H3.33333C1.49238 0 0 1.49238 0 3.33333V26.6667C0 28.5076 1.49238 30 3.33333 30H26.6667C28.5076 30 30 28.5076 30 26.6667V3.33333C30 1.49238 28.5076 0 26.6667 0Z" fill="#7C7C7C"/>
<path fill-rule="evenodd" clip-rule="evenodd" d="M25.1934 5.58794V9.46731L22.891 9.47331C21.0862 9.47331 20.7384 10.3307 20.7384 11.5839V14.36H25.0375L24.4799 18.7011H20.7384V29.9974H16.2541V18.7011H12.5V14.36H16.2541V11.1582C16.2541 7.44069 18.5199 5.41406 21.8417 5.41406C23.4252 5.41406 24.7917 5.53398 25.1934 5.58794Z" fill="black"/>
</g>
<defs>
<clipPath id="clip0_680_4489">
<rect width="30" height="30" fill="white"/>
</clipPath>
</defs>
</svg>
