<svg width="30" height="22" viewBox="0 0 30 22" fill="none" xmlns="http://www.w3.org/2000/svg">
<path d="M7.61694 0.804119C4.16051 1.92426 3.32841 2.91638 1.79222 7.87699C1.02413 10.2453 0 15.622 0 17.2221C0 18.8864 4.32053 21.6067 7.39291 21.8947C8.73708 22.0227 8.9291 21.9587 9.53718 21.0946L10.1773 20.1665L8.54506 19.5904C6.20877 18.7583 5.37667 18.1503 5.50468 17.3502C5.6327 16.4221 6.4968 16.358 8.16101 17.1261C10.2093 18.0863 11.9695 18.4383 15.0419 18.4383C18.1142 18.4383 19.8745 18.0863 21.9227 17.1261C23.5869 16.358 24.451 16.4221 24.579 17.3502C24.7071 18.1503 23.875 18.7583 21.5387 19.5904L19.9065 20.1665L20.5465 21.0946C21.1866 21.9907 21.3146 22.0227 22.8828 21.8627C25.0911 21.6387 27.8754 20.2945 29.1236 18.8864C30.0517 17.7982 30.1157 17.6702 29.8917 15.782C29.3156 10.1173 27.4274 4.19654 25.6992 2.53233C24.099 0.996144 18.2423 -0.604054 18.2423 0.48408C18.2423 0.6441 18.1782 0.96414 18.0822 1.22017C17.9542 1.50821 18.6263 1.86025 20.2905 2.37231C22.8188 3.17241 23.8429 3.94051 23.4909 4.80461C23.2349 5.5087 22.4348 5.44469 20.4185 4.61259C19.0104 4.00451 18.0742 3.47615 15.0019 3.47615C11.9295 3.47615 11.0734 4.00451 9.6652 4.61259C7.64895 5.44469 6.84885 5.5087 6.59282 4.80461C6.24077 3.94051 7.2649 3.17241 9.79321 2.37231C11.4574 1.86025 12.1295 1.50821 12.0015 1.22017C11.9055 0.96414 11.8415 0.6441 11.8415 0.48408C11.8415 0.00402114 9.56918 0.196044 7.61694 0.804119ZM12.2895 10.8214C13.4737 12.4856 12.5776 15.2379 10.8813 15.2379C9.76121 15.2379 8.64107 13.9577 8.64107 12.6776C8.64107 10.5653 11.2014 9.25316 12.2895 10.8214ZM20.7706 10.9494C21.1546 11.4294 21.4427 12.1975 21.4427 12.6776C21.4427 14.7898 18.8823 16.102 17.7942 14.5338C17.1541 13.6057 17.1541 11.7495 17.7942 10.8214C18.4983 9.82923 19.9385 9.89324 20.7706 10.9494Z" fill="#7C7C7C"/>
</svg>
