<svg width="31" height="24" viewBox="0 0 31 24" fill="none" xmlns="http://www.w3.org/2000/svg">
<path d="M29.825 3.9678C29.6494 3.05472 28.9822 2.31723 28.1042 2.0714C19.7811 -0.211301 11.4931 -0.211301 3.20517 2.0714C2.32721 2.31723 1.69507 3.0196 1.48436 3.89757C0.255213 9.37606 0.255213 14.8194 1.48436 20.2979C1.69507 21.1759 2.32721 21.8783 3.20517 22.1241C11.4931 24.3717 19.7811 24.3717 28.1042 22.1241C29.0173 21.8783 29.6845 21.1408 29.825 20.2277C30.8083 14.7843 30.8083 9.37606 29.825 3.9678Z" fill="#7C7C7C"/>
<path d="M21.9844 11.9463L12.5024 17.4208L12.5024 6.4719L21.9844 11.9463Z" fill="black"/>
</svg>
