<svg width="30" height="31" viewBox="0 0 30 31" fill="none" xmlns="http://www.w3.org/2000/svg">
<path d="M25.0223 0.953125H4.99727C2.24275 0.953125 0.00976562 3.1861 0.00976562 5.94062V25.9656C0.00976562 28.7201 2.24275 30.9531 4.99727 30.9531H25.0223C27.7768 30.9531 30.0098 28.7201 30.0098 25.9656V5.94062C30.0098 3.1861 27.7768 0.953125 25.0223 0.953125Z" fill="#7C7C7C"/>
<path d="M24.3599 13.5003V9.49983C19.1305 9.27902 18.9623 4.52705 18.9623 4.08052V4.04688H14.9204V19.6276C14.92 20.3009 14.7072 20.9569 14.3124 21.5023C13.9176 22.0477 13.3609 22.4547 12.7214 22.6654C12.082 22.8762 11.3923 22.8799 10.7507 22.676C10.109 22.4722 9.54791 22.0711 9.14729 21.53C8.74667 20.9889 8.5269 20.3352 8.51924 19.6619C8.51159 18.9887 8.71643 18.3302 9.10464 17.7801C9.49284 17.23 10.0446 16.8163 10.6815 16.5979C11.3184 16.3795 12.0079 16.3675 12.652 16.5636V12.4377C12.3424 12.3979 12.0305 12.378 11.7183 12.3781C10.2845 12.3781 8.88287 12.8032 7.69068 13.5998C6.49849 14.3964 5.5693 15.5287 5.02059 16.8533C4.47189 18.178 4.32833 19.6357 4.60805 21.042C4.88778 22.4482 5.57823 23.74 6.5921 24.7539C7.60598 25.7677 8.89773 26.4582 10.304 26.7379C11.7103 27.0176 13.1679 26.8741 14.4926 26.3254C15.8173 25.7767 16.9495 24.8475 17.7461 23.6553C18.5427 22.4631 18.9679 21.0615 18.9679 19.6276C18.9679 19.526 18.9679 19.4251 18.9609 19.3248V11.6525C20.822 13.3552 24.3599 13.5003 24.3599 13.5003Z" fill="#474747"/>
<path d="M25.5513 14.4868V10.4842C20.3212 10.2634 20.1537 5.51142 20.1537 5.0649V5.03125H16.1118V20.612C16.1115 21.2853 15.8989 21.9414 15.5042 22.4869C15.1095 23.0324 14.5528 23.4395 13.9133 23.6504C13.2739 23.8612 12.5842 23.865 11.9425 23.6612C11.3007 23.4574 10.7396 23.0565 10.3389 22.5154C9.93821 21.9742 9.71837 21.3206 9.71065 20.6473C9.70294 19.974 9.90775 19.3154 10.2959 18.7653C10.6841 18.2151 11.2359 17.8014 11.8728 17.583C12.5098 17.3646 13.1993 17.3526 13.8434 17.5487V13.422C13.533 13.3831 13.2205 13.3642 12.9076 13.3652C11.4738 13.3657 10.0722 13.7913 8.88026 14.5882C7.68829 15.3852 6.75943 16.5177 6.21113 17.8426C5.66283 19.1675 5.51973 20.6252 5.79992 22.0315C6.08011 23.4377 6.77101 24.7292 7.78525 25.7428C8.79948 26.7563 10.0915 27.4464 11.4979 27.7256C12.9043 28.0048 14.3619 27.8607 15.6865 27.3115C17.011 26.7623 18.1429 25.8327 18.939 24.6402C19.7352 23.4477 20.1599 22.0459 20.1593 20.612C20.1593 20.5104 20.1593 20.4094 20.1523 20.3092V12.6369C22.0134 14.3396 25.5513 14.4868 25.5513 14.4868Z" fill="black"/>
<path d="M19.0625 5.03125C19.2574 6.09254 19.8266 7.75177 21.4858 8.72263C20.2177 7.24566 20.1539 5.33968 20.1539 5.0649V5.03125H19.0625Z" fill="#646464"/>
<path d="M25.5516 14.4866V10.4839C25.1512 10.4693 24.7527 10.4224 24.3599 10.3438V13.4947C24.3599 13.4947 20.822 13.3496 18.9623 11.6469V19.317C18.9665 19.4173 18.9693 19.5182 18.9693 19.6199C18.9692 20.9315 18.6132 22.2185 17.9393 23.3438C17.2655 24.4691 16.299 25.3905 15.1428 26.0099C13.9866 26.6292 12.6841 26.9234 11.374 26.8609C10.0638 26.7985 8.79516 26.3818 7.70312 25.6553C8.70742 26.6925 9.99855 27.4062 11.411 27.7049C12.8235 28.0036 14.293 27.8737 15.6312 27.3318C16.9694 26.79 18.1153 25.8609 18.9221 24.6637C19.7289 23.4664 20.1598 22.0555 20.1596 20.6118C20.1596 20.5101 20.1596 20.4092 20.1526 20.3089V12.6367C22.0137 14.3394 25.5516 14.4866 25.5516 14.4866Z" fill="#222222"/>
<path d="M12.6527 16.5588C11.881 16.3234 11.0488 16.388 10.3226 16.7397C9.59635 17.0913 9.02963 17.7041 8.7357 18.4556C8.44176 19.207 8.44229 20.0417 8.73716 20.7928C9.03203 21.5438 9.59952 22.1559 10.3262 22.5067C9.92907 21.9642 9.71271 21.3106 9.70774 20.6384C9.70277 19.9662 9.90944 19.3094 10.2985 18.7612C10.6875 18.213 11.2392 17.8011 11.8753 17.5838C12.5115 17.3665 13.1999 17.355 13.843 17.5507V13.424C13.5326 13.3851 13.22 13.3662 12.9072 13.3672C12.821 13.3672 12.7362 13.3672 12.6506 13.3721L12.6527 16.5588Z" fill="#646464"/>
</svg>
