<svg width="30" height="30" viewBox="0 0 30 30" fill="none" xmlns="http://www.w3.org/2000/svg">
<path fill-rule="evenodd" clip-rule="evenodd" d="M30 3.75C30 1.68029 28.3197 0 26.25 0H3.75C1.68029 0 0 1.68029 0 3.75V26.25C0 28.3197 1.68029 30 3.75 30H26.25C28.3197 30 30 28.3197 30 26.25V3.75Z" fill="#7C7C7C"/>
<path d="M8.60313 10.4688H3.57812V25.5837H8.60313V10.4688Z" fill="black"/>
<path d="M6.12375 3.17969C4.40455 3.17969 3.28125 4.30996 3.28125 5.79139C3.28125 7.2417 4.37039 8.40314 6.05725 8.40314H6.08971C7.84184 8.40314 8.93244 7.2417 8.93244 5.79139C8.89992 4.30996 7.84195 3.17969 6.12375 3.17969Z" fill="black"/>
<path d="M20.9344 10.1094C18.269 10.1094 17.0751 11.5752 16.4065 12.6048V10.4648H11.3828C11.4494 11.8826 11.3828 25.5797 11.3828 25.5797H16.4065V17.1385C16.4065 16.6866 16.4389 16.2349 16.5721 15.912C16.9347 15.0097 17.7619 14.075 19.1498 14.075C20.9669 14.075 21.6949 15.4616 21.6949 17.4926V25.5797H26.7188V16.9119C26.7188 12.2691 24.24 10.1094 20.9344 10.1094Z" fill="black"/>
</svg>
