<svg width="21" height="21" viewBox="0 0 21 21" fill="none" xmlns="http://www.w3.org/2000/svg">
<path d="M18.4377 5.00625L2.88312 20.545C2.65229 20.7756 2.36229 20.8882 2.01313 20.8829C1.66368 20.8776 1.37354 20.7596 1.14271 20.5287C0.912153 20.2979 0.796875 20.0106 0.796875 19.6667C0.796875 19.3228 0.912153 19.0354 1.14271 18.8046L16.6815 3.25H3.02104C2.66687 3.25 2.36993 3.13014 2.13021 2.89042C1.89076 2.65069 1.77104 2.35375 1.77104 1.99958C1.77104 1.64514 1.89076 1.34833 2.13021 1.10917C2.36993 0.869722 2.66687 0.75 3.02104 0.75H19.431C19.858 0.75 20.2158 0.894306 20.5044 1.18292C20.7933 1.47181 20.9377 1.82958 20.9377 2.25625V18.6667C20.9377 19.0208 20.8178 19.3176 20.5781 19.5571C20.3384 19.7968 20.0415 19.9167 19.6873 19.9167C19.3328 19.9167 19.0359 19.7968 18.7965 19.5571C18.5573 19.3176 18.4377 19.0208 18.4377 18.6667V5.00625Z" fill="#BA9B6C"/>
</svg>
